<svg width="32" height="28" viewBox="0 0 32 28" fill="none" xmlns="http://www.w3.org/2000/svg">
<path d="M3.40625 12.6562H30.2812C30.6376 12.6562 30.9794 12.7978 31.2314 13.0498C31.4834 13.3018 31.625 13.6436 31.625 14C31.625 14.3564 31.4834 14.6982 31.2314 14.9502C30.9794 15.2022 30.6376 15.3438 30.2812 15.3438H3.40625C3.04987 15.3438 2.70808 15.2022 2.45608 14.9502C2.20407 14.6982 2.0625 14.3564 2.0625 14C2.0625 13.6436 2.20407 13.3018 2.45608 13.0498C2.70808 12.7978 3.04987 12.6562 3.40625 12.6562Z" fill="#0B0B0B"/>
<path d="M3.96258 14L15.1076 25.1424C15.36 25.3947 15.5017 25.7369 15.5017 26.0937C15.5017 26.4506 15.36 26.7928 15.1076 27.0451C14.8553 27.2974 14.5131 27.4392 14.1563 27.4392C13.7994 27.4392 13.4572 27.2974 13.2049 27.0451L1.11115 14.9514C0.986008 14.8265 0.886724 14.6783 0.818982 14.515C0.75124 14.3517 0.71637 14.1767 0.71637 14C0.71637 13.8232 0.75124 13.6482 0.818982 13.485C0.886724 13.3217 0.986008 13.1734 1.11115 13.0486L13.2049 0.954863C13.4572 0.702543 13.7994 0.560791 14.1563 0.560791C14.5131 0.560791 14.8553 0.702543 15.1076 0.954863C15.36 1.20718 15.5017 1.5494 15.5017 1.90624C15.5017 2.26307 15.36 2.60529 15.1076 2.85761L3.96258 14Z" fill="#0B0B0B"/>
</svg>
