<svg width="48" height="32" viewBox="0 0 48 32" fill="none" xmlns="http://www.w3.org/2000/svg">
<path d="M32.0383 9.94225H5.90202C2.78801 9.94225 0.253906 12.4257 0.253906 15.4776V26.3402C0.253906 29.3921 2.78801 31.8739 5.90202 31.8739H32.0383C35.1524 31.8739 37.6855 29.3913 37.6855 26.3402V15.4776C37.6855 12.4257 35.1524 9.94225 32.0383 9.94225ZM35.7415 26.3394C35.7415 28.3894 34.08 30.056 32.0374 30.056H5.90202C3.85946 30.056 2.19798 28.3894 2.19798 26.3394V15.4776C2.19798 13.4275 3.85946 11.761 5.9011 11.761H32.0374C34.08 11.761 35.7415 13.4275 35.7415 15.4776V26.3394ZM42.5973 10.3026V27.2139C42.5973 27.6895 42.1858 28.0739 41.6768 28.0739C41.1677 28.0739 40.7563 27.6895 40.7563 27.2148V10.3026C40.7563 8.40555 39.104 6.86284 37.0743 6.86284H8.23269C7.72366 6.86284 7.31221 6.47845 7.31221 6.00291C7.31221 5.52737 7.72366 5.14298 8.23269 5.14298H37.0743C40.1202 5.14298 42.5973 7.45705 42.5973 10.3026ZM47.3525 5.28659V22.198C47.3525 22.6735 46.941 23.0579 46.432 23.0587C45.923 23.0587 45.5115 22.6744 45.5115 22.1988V5.28659C45.5115 3.38959 43.8592 1.84687 41.8296 1.84687H12.9879C12.4789 1.84687 12.0674 1.46248 12.0674 0.986943C12.0674 0.511403 12.4789 0.127014 12.9879 0.127014H41.8296C44.8755 0.127014 47.3525 2.44108 47.3525 5.28659ZM22.3079 17.2912C22.3079 15.2755 20.5534 13.6365 18.3958 13.6365C16.2382 13.6365 14.4828 15.2755 14.4828 17.2912C14.4828 18.8889 15.592 20.2347 17.1237 20.7309C15.7383 21.2366 14.7562 22.4594 14.7562 23.8903V27.3025H22.3079V23.8903C22.3079 22.4138 21.2576 21.1652 19.8023 20.6914C21.264 20.1608 22.3079 18.8417 22.3079 17.2912ZM18.3958 14.4956C19.5556 14.4956 20.5525 15.1225 21.0486 16.0254C20.7394 15.8912 20.4153 15.6952 20.1189 15.5068C19.5243 15.1302 19.0061 14.8034 18.5099 14.9832C18.2329 15.0812 18.0442 15.3082 17.9503 15.6573C17.757 16.3711 16.2511 16.7185 15.453 16.8294C15.6905 15.5094 16.9147 14.4956 18.3958 14.4956ZM21.3874 23.8894V26.4417H15.6767V23.8894C15.6767 22.4826 16.958 21.338 18.533 21.338C20.1061 21.338 21.3874 22.4826 21.3874 23.8894ZM18.3958 20.086C16.8954 20.086 15.661 19.0463 15.4475 17.7005C16.1682 17.6171 18.4694 17.2465 18.8422 15.8706C18.8496 15.8448 18.857 15.8233 18.8625 15.8078C19.0337 15.8603 19.3697 16.0735 19.6026 16.2206C20.1097 16.5413 20.7099 16.9171 21.3579 17.0134C21.3681 17.1063 21.3874 17.1966 21.3874 17.2912C21.3874 18.8322 20.0453 20.086 18.3958 20.086Z" fill="#030104"/>
</svg>
