<svg width="20" height="19" viewBox="0 0 20 19" fill="none" xmlns="http://www.w3.org/2000/svg">
<path fill-rule="evenodd" clip-rule="evenodd" d="M19.4163 6.43715L10.4163 0.437148C10.1642 0.268999 9.83578 0.268999 9.58375 0.437148L0.58375 6.43715C0.375087 6.57637 0.249837 6.81068 0.25 7.06152V16.8115C0.25 17.6399 0.921573 18.3115 1.75 18.3115H18.25C19.0784 18.3115 19.75 17.6399 19.75 16.8115V7.06152C19.7502 6.81068 19.6249 6.57637 19.4163 6.43715ZM7.0675 12.3115L1.75 16.0615V8.51746L7.0675 12.3115ZM8.60219 13.0615H11.3978L16.7069 16.8115H3.29313L8.60219 13.0615ZM12.9325 12.3115L18.25 8.51746V16.0615L12.9325 12.3115ZM10 1.96246L17.6791 7.08215L11.3978 11.5615H8.60406L2.32281 7.08215L10 1.96246Z" fill="#0D141C"/>
</svg>
