<svg width="19" height="20" viewBox="0 0 19 20" fill="none" xmlns="http://www.w3.org/2000/svg">
<path fill-rule="evenodd" clip-rule="evenodd" d="M17.8472 12.8864L13.4306 10.9073L13.4184 10.9017C12.9526 10.7025 12.4177 10.7518 11.9963 11.0329C11.9718 11.0491 11.9483 11.0666 11.9259 11.0854L9.64406 13.0308C8.19844 12.3286 6.70594 10.8473 6.00375 9.42045L7.95187 7.10389C7.97062 7.08045 7.98844 7.05701 8.00531 7.0317C8.28032 6.61147 8.32677 6.08149 8.12906 5.61982V5.60857L6.14437 1.18451C5.88009 0.574666 5.246 0.211454 4.58625 0.292012C1.95833 0.637816 -0.00475144 2.8802 0 5.53076C0 12.9745 6.05625 19.0308 13.5 19.0308C16.1506 19.0355 18.3929 17.0724 18.7388 14.4445C18.8195 13.785 18.4567 13.151 17.8472 12.8864ZM13.5 17.5308C6.87558 17.5235 1.50723 12.1552 1.5 5.53076C1.4927 3.63694 2.89195 2.03185 4.76906 1.78076C4.76869 1.7845 4.76869 1.78827 4.76906 1.79201L6.73781 6.19826L4.8 8.51764C4.78033 8.54027 4.76246 8.56441 4.74656 8.58982C4.45961 9.03015 4.42405 9.58853 4.65281 10.0617C5.50219 11.7989 7.2525 13.5361 9.00844 14.3845C9.48515 14.6112 10.0459 14.5706 10.485 14.2776C10.5091 14.2614 10.5322 14.2439 10.5544 14.2251L12.8334 12.2808L17.2397 14.2542C17.2397 14.2542 17.2472 14.2542 17.25 14.2542C17.002 16.1341 15.3962 17.5372 13.5 17.5308Z" fill="#0D141C"/>
</svg>
