<svg width="35" height="33" viewBox="0 0 35 33" fill="none" xmlns="http://www.w3.org/2000/svg">
<path fill-rule="evenodd" clip-rule="evenodd" d="M13.6111 32.3333H21.3889C26.8508 32.3333 29.5816 32.3333 31.5434 31.0395C32.3925 30.4794 33.1217 29.7597 33.6892 28.9216C35 26.9853 35 24.2898 35 18.8989C35 13.5082 35 10.8126 33.6892 8.87639C33.1217 8.03817 32.3925 7.31846 31.5434 6.75838C30.2827 5.92704 28.7047 5.6299 26.2885 5.52369C25.1354 5.52369 24.1428 4.66134 23.9167 3.54541C23.5774 1.87153 22.0883 0.666626 20.359 0.666626H14.641C12.9116 0.666626 11.4225 1.87153 11.0833 3.54541C10.8572 4.66134 9.86449 5.52369 8.7115 5.52369C6.29533 5.6299 4.71721 5.92704 3.45667 6.75838C2.60741 7.31846 1.87824 8.03817 1.31079 8.87639C2.38419e-07 10.8126 0 13.5082 0 18.8989C0 24.2898 2.38419e-07 26.9853 1.31079 28.9216C1.87824 29.7597 2.60741 30.4794 3.45667 31.0395C5.41842 32.3333 8.14931 32.3333 13.6111 32.3333ZM17.5 11.702C13.4729 11.702 10.2083 14.9242 10.2083 18.8989C10.2083 22.8738 13.4729 26.0958 17.5 26.0958C21.5271 26.0958 24.7917 22.8738 24.7917 18.8989C24.7917 14.9242 21.5271 11.702 17.5 11.702ZM17.5 14.5808C15.0838 14.5808 13.125 16.514 13.125 18.8989C13.125 21.2837 15.0838 23.2172 17.5 23.2172C19.9162 23.2172 21.875 21.2837 21.875 18.8989C21.875 16.514 19.9162 14.5808 17.5 14.5808ZM25.7639 13.1414C25.7639 12.3464 26.4168 11.702 27.2223 11.702H29.1667C29.9721 11.702 30.625 12.3464 30.625 13.1414C30.625 13.9364 29.9721 14.5808 29.1667 14.5808H27.2223C26.4168 14.5808 25.7639 13.9364 25.7639 13.1414Z" fill="#1E3A41"/>
</svg>
