<svg width="24" height="22" viewBox="0 0 24 22" fill="none" xmlns="http://www.w3.org/2000/svg">
<path fill-rule="evenodd" clip-rule="evenodd" d="M17.4292 14.6244C18.6956 13.084 19.4529 11.1301 19.4529 9.0041C19.4529 4.03127 15.3096 0 10.1987 0C5.08771 0 0.944458 4.03127 0.944458 9.0041C0.944458 13.9769 5.08771 18.0082 10.1987 18.0082C12.3837 18.0082 14.3919 17.2714 15.9751 16.0392L21.8002 21.707C22.2018 22.0977 22.8529 22.0977 23.2544 21.707C23.656 21.3163 23.656 20.6828 23.2544 20.2921L17.4292 14.6244ZM10.1987 16.0173C6.21778 16.0173 2.99063 12.8774 2.99063 9.0041C2.99063 5.1308 6.21778 1.99087 10.1987 1.99087C14.1796 1.99087 17.4067 5.1308 17.4067 9.0041C17.4067 12.8774 14.1796 16.0173 10.1987 16.0173Z" fill="#565656"/>
</svg>
